<mxfile host="app.diagrams.net" agent="Mozilla/5.0 (Windows NT 10.0; Win64; x64) AppleWebKit/537.36 (KHTML, like Gecko) Chrome/136.0.0.0 Safari/537.36" version="27.0.2">
  <diagram name="Page-1" id="7Vnvi6QLhBqZ4-cURhKA">
    <mxGraphModel dx="1501" dy="831" grid="1" gridSize="10" guides="1" tooltips="1" connect="1" arrows="1" fold="1" page="1" pageScale="1" pageWidth="1100" pageHeight="1700" math="0" shadow="0">
      <root>
        <mxCell id="0" />
        <mxCell id="1" parent="0" />
        <mxCell id="8Q48xsuIol9S2teQEiAj-12" value="&lt;div&gt;&lt;br&gt;&lt;/div&gt;" style="rounded=1;whiteSpace=wrap;html=1;fillColor=#fad9d5;strokeColor=#ae4132;glass=0;shadow=1;" vertex="1" parent="1">
          <mxGeometry x="10" y="160" width="340" height="700" as="geometry" />
        </mxCell>
        <mxCell id="8Q48xsuIol9S2teQEiAj-13" value="&lt;div&gt;&lt;br&gt;&lt;/div&gt;" style="rounded=1;whiteSpace=wrap;html=1;fillColor=#dae8fc;strokeColor=#6c8ebf;shadow=1;" vertex="1" parent="1">
          <mxGeometry x="385" y="160" width="350" height="700" as="geometry" />
        </mxCell>
        <mxCell id="8Q48xsuIol9S2teQEiAj-14" value="&lt;div&gt;&lt;br&gt;&lt;/div&gt;" style="rounded=1;whiteSpace=wrap;html=1;fillColor=#e1d5e7;strokeColor=#9673a6;shadow=1;" vertex="1" parent="1">
          <mxGeometry x="760" y="160" width="330" height="700" as="geometry" />
        </mxCell>
        <mxCell id="8Q48xsuIol9S2teQEiAj-15" value="&lt;table&gt;&lt;tbody&gt;&lt;tr&gt;&lt;td data-col-size=&quot;sm&quot; data-end=&quot;1063&quot; data-start=&quot;1033&quot;&gt;&lt;font style=&quot;font-size: 15px;&quot;&gt;&lt;strong data-end=&quot;1051&quot; data-start=&quot;1035&quot;&gt;&lt;/strong&gt;&lt;/font&gt;&lt;/td&gt;&lt;/tr&gt;&lt;/tbody&gt;&lt;/table&gt;&lt;table&gt;&lt;tbody&gt;&lt;tr&gt;&lt;td data-col-size=&quot;md&quot; data-end=&quot;1138&quot; data-start=&quot;1063&quot;&gt;&lt;font style=&quot;font-size: 15px;&quot;&gt;Set Semester : Date Start, Date End&lt;/font&gt;&lt;/td&gt;&lt;/tr&gt;&lt;/tbody&gt;&lt;/table&gt;" style="text;html=1;align=center;verticalAlign=middle;whiteSpace=wrap;rounded=0;" vertex="1" parent="1">
          <mxGeometry x="58.5" y="220" width="248" height="30" as="geometry" />
        </mxCell>
        <mxCell id="8Q48xsuIol9S2teQEiAj-16" value="&lt;div&gt;&lt;div&gt;&lt;span style=&quot;background-color: transparent; color: light-dark(rgb(0, 0, 0), rgb(255, 255, 255));&quot;&gt;&lt;font style=&quot;font-size: 15px;&quot;&gt;Create Account: Surname, Firstname, Email, Role&lt;/font&gt;&lt;/span&gt;&lt;/div&gt;&lt;/div&gt;" style="text;html=1;align=center;verticalAlign=middle;whiteSpace=wrap;rounded=0;" vertex="1" parent="1">
          <mxGeometry x="58.5" y="275" width="248" height="30" as="geometry" />
        </mxCell>
        <mxCell id="8Q48xsuIol9S2teQEiAj-17" value="&lt;font style=&quot;font-size: 15px;&quot;&gt;&lt;br&gt;&lt;/font&gt;&lt;div&gt;&lt;div&gt;&lt;span style=&quot;background-color: transparent; color: light-dark(rgb(0, 0, 0), rgb(255, 255, 255));&quot;&gt;&lt;font style=&quot;font-size: 15px;&quot;&gt;Application/ Renewal: Surname, Firstname, email, softcopy documents/requirements&lt;/font&gt;&lt;/span&gt;&lt;/div&gt;&lt;/div&gt;" style="text;html=1;align=center;verticalAlign=middle;whiteSpace=wrap;rounded=0;" vertex="1" parent="1">
          <mxGeometry x="30.125" y="330" width="304.75" height="30" as="geometry" />
        </mxCell>
        <mxCell id="8Q48xsuIol9S2teQEiAj-18" value="&lt;div&gt;&lt;font style=&quot;font-size: 15px;&quot;&gt;Validator:&amp;nbsp;Status (Approve/Reject)&lt;/font&gt;&lt;/div&gt;" style="text;html=1;align=center;verticalAlign=middle;whiteSpace=wrap;rounded=0;fontSize=14;" vertex="1" parent="1">
          <mxGeometry x="62.5" y="385" width="240" height="30" as="geometry" />
        </mxCell>
        <mxCell id="8Q48xsuIol9S2teQEiAj-19" value="&lt;font style=&quot;font-size: 15px;&quot;&gt;Fellowship&amp;nbsp; Attendance: Fellowship Date, Church Name (scanned via QR)&lt;/font&gt;" style="text;html=1;align=center;verticalAlign=middle;whiteSpace=wrap;rounded=0;fontSize=14;" vertex="1" parent="1">
          <mxGeometry x="34" y="440" width="297" height="30" as="geometry" />
        </mxCell>
        <mxCell id="8Q48xsuIol9S2teQEiAj-20" value="&lt;div&gt;&lt;font style=&quot;font-size: 15px;&quot;&gt;Grand Fellowship Date, Church Name (scanned via QR)&lt;/font&gt;&lt;/div&gt;" style="text;html=1;align=center;verticalAlign=middle;whiteSpace=wrap;rounded=0;fontSize=14;" vertex="1" parent="1">
          <mxGeometry x="56" y="495" width="253" height="30" as="geometry" />
        </mxCell>
        <mxCell id="8Q48xsuIol9S2teQEiAj-21" value="&lt;font style=&quot;font-size: 15px;&quot;&gt;Gratis Attendance:Time In, Time Out, Department (QR-based)&lt;/font&gt;" style="text;html=1;align=center;verticalAlign=middle;whiteSpace=wrap;rounded=0;fontSize=14;" vertex="1" parent="1">
          <mxGeometry x="27" y="550" width="311" height="30" as="geometry" />
        </mxCell>
        <mxCell id="8Q48xsuIol9S2teQEiAj-22" value="&lt;font style=&quot;font-size: 15px;&quot;&gt;Monitoring Personnel: violation hours&lt;/font&gt;" style="text;html=1;align=center;verticalAlign=middle;whiteSpace=wrap;rounded=0;fontSize=14;" vertex="1" parent="1">
          <mxGeometry x="41" y="605" width="283" height="30" as="geometry" />
        </mxCell>
        <mxCell id="8Q48xsuIol9S2teQEiAj-23" value="&lt;font style=&quot;font-size: 15px;&quot;&gt;Scholar: Surname, Firstname, Email → Later: Schedule, Department, Church&lt;/font&gt;" style="text;html=1;align=center;verticalAlign=middle;whiteSpace=wrap;rounded=0;fontSize=14;" vertex="1" parent="1">
          <mxGeometry x="23.5" y="660" width="318" height="30" as="geometry" />
        </mxCell>
        <mxCell id="8Q48xsuIol9S2teQEiAj-24" value="&lt;div&gt;&lt;div&gt;&lt;font style=&quot;font-size: 15px;&quot;&gt;Personnel: Department/Church, Surname, Firstname, Email, Role&lt;/font&gt;&lt;/div&gt;&lt;/div&gt;" style="text;html=1;align=center;verticalAlign=middle;whiteSpace=wrap;rounded=0;fontSize=14;" vertex="1" parent="1">
          <mxGeometry x="10" y="715" width="311.5" height="30" as="geometry" />
        </mxCell>
        <mxCell id="8Q48xsuIol9S2teQEiAj-25" value="&lt;font style=&quot;font-size: 15px;&quot;&gt;Save dates in DB; set as active semester; serve as filter for all data&lt;/font&gt;" style="text;html=1;align=center;verticalAlign=middle;whiteSpace=wrap;rounded=0;" vertex="1" parent="1">
          <mxGeometry x="421" y="220" width="282" height="30" as="geometry" />
        </mxCell>
        <mxCell id="8Q48xsuIol9S2teQEiAj-26" value="&lt;font style=&quot;font-size: 15px;&quot;&gt;Generate username/password; assign role; save to DB; send credentials via email&lt;/font&gt;" style="text;html=1;align=center;verticalAlign=middle;whiteSpace=wrap;rounded=0;" vertex="1" parent="1">
          <mxGeometry x="416" y="270" width="292" height="40" as="geometry" />
        </mxCell>
        <mxCell id="8Q48xsuIol9S2teQEiAj-27" value="&lt;font style=&quot;font-size: 15px;&quot;&gt;Save to &lt;code style=&quot;&quot; data-end=&quot;1857&quot; data-start=&quot;1846&quot;&gt;applicant&lt;/code&gt; table; pending validator review&lt;/font&gt;" style="text;html=1;align=center;verticalAlign=middle;whiteSpace=wrap;rounded=0;" vertex="1" parent="1">
          <mxGeometry x="421" y="333" width="282" height="40" as="geometry" />
        </mxCell>
        <mxCell id="8Q48xsuIol9S2teQEiAj-28" value="&lt;font style=&quot;font-size: 15px;&quot;&gt;Update applicant status in DB&lt;/font&gt;" style="text;html=1;align=center;verticalAlign=middle;whiteSpace=wrap;rounded=0;" vertex="1" parent="1">
          <mxGeometry x="442" y="380" width="240" height="40" as="geometry" />
        </mxCell>
        <mxCell id="8Q48xsuIol9S2teQEiAj-29" value="&lt;font style=&quot;font-size: 15px;&quot;&gt;Validate location and QR code; confirm scholar presence; save to DB&lt;/font&gt;" style="text;html=1;align=center;verticalAlign=middle;whiteSpace=wrap;rounded=0;" vertex="1" parent="1">
          <mxGeometry x="431" y="432" width="262" height="40" as="geometry" />
        </mxCell>
        <mxCell id="8Q48xsuIol9S2teQEiAj-30" value="&lt;font style=&quot;font-size: 15px;&quot;&gt;Same as regular fellowship; tag as final session&lt;/font&gt;" style="text;html=1;align=center;verticalAlign=middle;whiteSpace=wrap;rounded=0;" vertex="1" parent="1">
          <mxGeometry x="426" y="493" width="272" height="40" as="geometry" />
        </mxCell>
        <mxCell id="8Q48xsuIol9S2teQEiAj-31" value="&lt;font style=&quot;font-size: 15px;&quot;&gt;Validate QR and department; compute total time; save to DB&lt;/font&gt;" style="text;html=1;align=center;verticalAlign=middle;whiteSpace=wrap;rounded=0;" vertex="1" parent="1">
          <mxGeometry x="431" y="550" width="262" height="40" as="geometry" />
        </mxCell>
        <mxCell id="8Q48xsuIol9S2teQEiAj-32" value="&lt;font style=&quot;font-size: 15px;&quot;&gt;Input violation; add to scholar’s total violation hours&lt;/font&gt;" style="text;html=1;align=center;verticalAlign=middle;whiteSpace=wrap;rounded=0;" vertex="1" parent="1">
          <mxGeometry x="413" y="607" width="298" height="40" as="geometry" />
        </mxCell>
        <mxCell id="8Q48xsuIol9S2teQEiAj-33" value="&lt;font style=&quot;font-size: 15px;&quot;&gt;Create account and email credentials; Scholar fills out remaining info on first login&lt;/font&gt;" style="text;html=1;align=center;verticalAlign=middle;whiteSpace=wrap;rounded=0;" vertex="1" parent="1">
          <mxGeometry x="416" y="660" width="292" height="40" as="geometry" />
        </mxCell>
        <mxCell id="8Q48xsuIol9S2teQEiAj-34" value="&lt;font style=&quot;font-size: 15px;&quot;&gt;Same as Create Account; just includes department/church assignment&lt;/font&gt;" style="text;html=1;align=center;verticalAlign=middle;whiteSpace=wrap;rounded=0;" vertex="1" parent="1">
          <mxGeometry x="422" y="710" width="280" height="40" as="geometry" />
        </mxCell>
        <mxCell id="8Q48xsuIol9S2teQEiAj-35" value="&lt;font style=&quot;font-size: 15px;&quot;&gt;&lt;br&gt;All data tagged to the selected semester&lt;br&gt;&lt;/font&gt;" style="text;html=1;align=center;verticalAlign=middle;whiteSpace=wrap;rounded=0;" vertex="1" parent="1">
          <mxGeometry x="794" y="210" width="280" height="30" as="geometry" />
        </mxCell>
        <mxCell id="8Q48xsuIol9S2teQEiAj-36" value="&lt;font style=&quot;font-size: 15px;&quot;&gt;Account created and emailed&lt;/font&gt;" style="text;html=1;align=center;verticalAlign=middle;whiteSpace=wrap;rounded=0;" vertex="1" parent="1">
          <mxGeometry x="824" y="268" width="220" height="30" as="geometry" />
        </mxCell>
        <mxCell id="8Q48xsuIol9S2teQEiAj-37" value="&lt;font style=&quot;font-size: 15px;&quot;&gt;Application recorded; status pending&lt;/font&gt;" style="text;html=1;align=center;verticalAlign=middle;whiteSpace=wrap;rounded=0;" vertex="1" parent="1">
          <mxGeometry x="806" y="326" width="256" height="30" as="geometry" />
        </mxCell>
        <mxCell id="8Q48xsuIol9S2teQEiAj-38" value="&lt;font style=&quot;font-size: 15px;&quot;&gt;Application approved or rejected&lt;/font&gt;" style="text;html=1;align=center;verticalAlign=middle;whiteSpace=wrap;rounded=0;" vertex="1" parent="1">
          <mxGeometry x="821" y="384" width="226" height="30" as="geometry" />
        </mxCell>
        <mxCell id="8Q48xsuIol9S2teQEiAj-39" value="&lt;font style=&quot;font-size: 15px;&quot;&gt;Attendance recorded; shown in Scholar UI&lt;/font&gt;" style="text;html=1;align=center;verticalAlign=middle;whiteSpace=wrap;rounded=0;" vertex="1" parent="1">
          <mxGeometry x="788" y="442" width="286" height="30" as="geometry" />
        </mxCell>
        <mxCell id="8Q48xsuIol9S2teQEiAj-40" value="&lt;font style=&quot;font-size: 15px;&quot;&gt;Recorded; marks final fellowship for the period&lt;/font&gt;" style="text;html=1;align=center;verticalAlign=middle;whiteSpace=wrap;rounded=0;" vertex="1" parent="1">
          <mxGeometry x="817" y="500" width="234" height="30" as="geometry" />
        </mxCell>
        <mxCell id="8Q48xsuIol9S2teQEiAj-41" value="&lt;font style=&quot;font-size: 15px;&quot;&gt;Daily hours recorded; shown in Scholar&#39;s gratis section&lt;/font&gt;" style="text;html=1;align=center;verticalAlign=middle;whiteSpace=wrap;rounded=0;" vertex="1" parent="1">
          <mxGeometry x="802" y="558" width="264" height="30" as="geometry" />
        </mxCell>
        <mxCell id="8Q48xsuIol9S2teQEiAj-42" value="&lt;font style=&quot;font-size: 15px;&quot;&gt;Violation logged; counts against required hours&lt;/font&gt;" style="text;html=1;align=center;verticalAlign=middle;whiteSpace=wrap;rounded=0;" vertex="1" parent="1">
          <mxGeometry x="792" y="616" width="284" height="30" as="geometry" />
        </mxCell>
        <mxCell id="8Q48xsuIol9S2teQEiAj-43" value="&lt;font style=&quot;font-size: 15px;&quot;&gt;Account created; Scholar data updated&lt;/font&gt;" style="text;html=1;align=center;verticalAlign=middle;whiteSpace=wrap;rounded=0;" vertex="1" parent="1">
          <mxGeometry x="797" y="674" width="274" height="30" as="geometry" />
        </mxCell>
        <mxCell id="8Q48xsuIol9S2teQEiAj-44" value="&lt;font style=&quot;font-size: 15px;&quot;&gt;Personnel account created; used for fellowship/gratis tracking&lt;/font&gt;" style="text;html=1;align=center;verticalAlign=middle;whiteSpace=wrap;rounded=0;" vertex="1" parent="1">
          <mxGeometry x="807" y="732" width="254" height="30" as="geometry" />
        </mxCell>
        <mxCell id="8Q48xsuIol9S2teQEiAj-47" value="" style="shape=flexArrow;endArrow=classic;html=1;rounded=0;fillColor=#d5e8d4;strokeColor=#82b366;shadow=1;flowAnimation=0;width=39;endSize=11.29;endWidth=32;" edge="1" parent="1">
          <mxGeometry width="50" height="50" relative="1" as="geometry">
            <mxPoint x="333" y="511" as="sourcePoint" />
            <mxPoint x="411" y="510.5" as="targetPoint" />
          </mxGeometry>
        </mxCell>
        <mxCell id="8Q48xsuIol9S2teQEiAj-51" value="&lt;font face=&quot;Lucida Console&quot; style=&quot;font-size: 24px;&quot;&gt;INPUT&lt;/font&gt;" style="rounded=1;whiteSpace=wrap;html=1;shadow=1;fillColor=#fad9d5;strokeColor=#ae4132;" vertex="1" parent="1">
          <mxGeometry x="25" y="90" width="310" height="60" as="geometry" />
        </mxCell>
        <mxCell id="8Q48xsuIol9S2teQEiAj-52" value="&lt;font face=&quot;Lucida Console&quot; style=&quot;font-size: 24px;&quot;&gt;PROCESS&lt;/font&gt;" style="rounded=1;whiteSpace=wrap;html=1;shadow=1;fillColor=#dae8fc;strokeColor=#6c8ebf;" vertex="1" parent="1">
          <mxGeometry x="395" y="90" width="310" height="60" as="geometry" />
        </mxCell>
        <mxCell id="8Q48xsuIol9S2teQEiAj-53" value="&lt;font face=&quot;Lucida Console&quot; style=&quot;font-size: 24px;&quot;&gt;OUTPUT&lt;/font&gt;" style="rounded=1;whiteSpace=wrap;html=1;shadow=1;glass=0;fillColor=#e1d5e7;strokeColor=#9673a6;" vertex="1" parent="1">
          <mxGeometry x="770" y="90" width="310" height="60" as="geometry" />
        </mxCell>
        <mxCell id="8Q48xsuIol9S2teQEiAj-54" value="&lt;font style=&quot;font-size: 15px;&quot;&gt;Completion status from Fellowship and Gratis: System generates and provides certificate (downloadable or emailed)&lt;/font&gt;" style="text;html=1;align=center;verticalAlign=middle;whiteSpace=wrap;rounded=0;" vertex="1" parent="1">
          <mxGeometry x="797" y="790" width="274" height="30" as="geometry" />
        </mxCell>
        <mxCell id="8Q48xsuIol9S2teQEiAj-58" value="" style="shape=flexArrow;endArrow=classic;html=1;rounded=0;fillColor=#d5e8d4;strokeColor=#82b366;shadow=1;flowAnimation=0;width=39;endSize=11.29;endWidth=32;" edge="1" parent="1">
          <mxGeometry width="50" height="50" relative="1" as="geometry">
            <mxPoint x="714" y="510" as="sourcePoint" />
            <mxPoint x="792" y="509.5" as="targetPoint" />
          </mxGeometry>
        </mxCell>
      </root>
    </mxGraphModel>
  </diagram>
</mxfile>
